# Alias OBJ Model File
# Exported from SketchUp, (c) 2000-2012 Trimble Navigation Limited
# File units = meters

mtllib Fence.mtl

g Mesh1 Model

usemtl _4
v 0.0499975 1.38094 -0.000503701
vt 1.9685 1.34897
vn 0.000186783 0.999694 0.0247202
v 0.0308576 1.42792 -1.90033
vt 1.78012 76.1718
v -0.0191449 1.42793 -1.90033
vt -0.188431 76.1867
v 0 1.38094 -0
vt 0 1.34402
f 1/1/1 2/2/1 3/3/1 4/4/1 

v 0.0499975 1.25094 -0.000503701
vt -6.93889e-18 49.2495
vn 0.999949 -1.08741e-17 -0.010074
v 0.0308576 1.25094 -1.90033
vt 74.8002 49.2495
vt 74.8002 56.2174
vt -6.93889e-18 54.3676
f 5/5/2 6/6/2 2/7/2 1/8/2 

v 0 1.25094 -0
vt 0 0
vn 0 -1 -0
v -0.019145 1.25094 -1.90033
vt 0.753738 74.8162
vt -1.21487 74.8162
vt -1.9684 0.0198307
f 7/9/3 8/10/3 6/11/3 5/12/3 

vt -74.82 56.2176
vn -0.999949 4.58364e-09 0.010074
vt -74.82 49.2495
vt 0 49.2495
vt 0 54.3676
f 3/13/4 8/14/4 7/15/4 4/16/4 

vt 0.753623 49.2494
vn -1.53937e-06 4.34915e-07 -1
vt 0.753623 56.2176
vt -1.21498 56.2174
vt -1.21498 49.2494
f 8/17/5 3/18/5 2/19/5 6/20/5 

vn 0.010074 0 0.999949
vt 1.9685 49.2495
vt 1.9685 54.3676
f 4/16/6 7/15/6 5/21/6 1/22/6 

v -0.07 0 -0
vt -2.75591 0
vn 0 0 1
v 0 0 -0
v 0 1.56 -0
vt 0 61.4173
v -0.07 1.56 -0
vt -2.75591 61.4173
f 9/23/7 10/9/7 7/15/7 4/16/7 11/24/7 12/25/7 

v -0.07 0 -0.21
vt 2.75591 8.26772
v 0 0 -0.21
vt 0 8.26772
vt 2.75591 0
f 13/26/3 14/27/3 10/9/3 9/28/3 

v -0.07 1.58 -0.21
vt 2.75591 62.2047
vn 0 0 -1
v 0 1.58 -0.21
vt 0 62.2047
f 15/29/8 16/30/8 14/9/8 13/28/8 

vt -2.75591 14.128
vn 0 0.995495 0.0948091
vt -2.75591 5.82292
vt 0 5.82292
vt 0 14.128
f 15/31/9 12/32/9 11/33/9 16/34/9 

vn -1 0 -0
vt -8.26772 62.2047
vt -8.26772 0
f 9/9/10 12/24/10 15/35/10 13/36/10 

vt 8.26772 0
vn 1 0 -0
vt 8.26772 62.2047
f 14/37/11 16/38/11 11/24/11 4/16/11 7/15/11 10/9/11 

g Mesh2 Model

v 0.0324523 1.32791 -1.93003
vt 75.7251 52.2863
vn 0.997711 -0.000988114 -0.0676099
v -0.0959674 1.2484 -3.82394
vt 150.46 49.1559
v -0.0962938 1.42523 -3.83134
vt 150.751 56.1177
v 0.0322125 1.4578 -1.93546
vt 75.9393 57.3999
f 17/39/12 18/40/12 19/41/12 20/42/12 

v -0.0174333 1.32796 -1.92665
vt 2.65652 -73.5537
vn 0.00184454 -0.999123 0.0418218
v -0.145887 1.24843 -3.82106
vt 0.890482 -148.353
vt 2.85891 -148.38
vt 4.62448 -73.6002
f 21/43/13 22/44/13 18/45/13 17/46/13 

v -0.146213 1.42526 -3.82846
vt -150.771 56.1171
vn -0.997711 0.000988119 0.0676099
vt -150.48 49.155
vt -75.7251 52.2863
v -0.017673 1.45785 -1.93208
vt -75.9393 57.3999
f 23/47/14 22/48/14 21/49/14 24/50/14 

vt -4.90202 62.3747
vn -0.0575391 -0.0418582 -0.997465
vt -4.89807 55.4068
vt -2.92947 55.4079
vt -2.93342 62.3761
f 19/51/15 18/52/15 22/53/15 23/54/15 

vt -2.31211 -75.1786
vn -0.000235163 0.999853 -0.0171622
vt 1.72406 -149.893
vt 3.69077 -149.806
vt -0.346468 -75.0724
f 20/55/16 19/56/16 23/57/16 24/58/16 

vt 4.45179 60.5234
vn 0.067592 0.0418508 0.996835
vt 4.44673 55.4053
vt 6.41523 55.4033
vt 6.42029 60.5214
f 24/59/17 21/60/17 17/61/17 20/62/17 

g Mesh3 Model

v 0.141249 0.579119 -0.842342
vt -5.56099 -32.9466
vn 0 0.999956 -0.00942969
v 0.181154 0.579119 -0.842342
vt -7.13206 -32.9466
v 0.0152934 0.569119 -1.90278
vt -0.602101 -74.6978
v -0.0347066 0.569119 -1.90278
vt 1.3664 -74.6978
f 25/63/18 26/64/18 27/65/18 28/66/18 

v 0.141249 0.419126 -0.840833
vt 5.56099 16.8125
vn 0 0.00942969 0.999956
v 0.181154 0.419126 -0.840833
vt 7.13206 16.8125
vt 7.13206 23.1117
vt 5.56099 23.1117
f 29/67/19 30/68/19 26/69/19 25/70/19 

vt -7.13206 16.501
vn 0 2.27139e-15 -1
vt -5.56099 16.501
v 0.141249 0.57804 -0.840833
vt -5.56099 22.7575
v 0.181154 0.57804 -0.840833
vt -7.13206 22.7575
f 30/71/20 29/72/20 31/73/20 32/74/20 

vt -33.5672 16.501
vn -0.985478 4.36537e-17 -0.169801
v 0 0.419126 -0.0210623
vt -0.817182 16.501
v 0 0.57804 -0.0210623
vt -0.817182 22.7575
vt -33.5672 22.7575
f 29/75/21 33/76/21 34/77/21 31/78/21 

vt 8.84586e-16 16.501
vn 1.06676e-15 9.93735e-16 1
v 0.0211478 0.419126 -0.0210623
vt 0.832591 16.501
v 0.0211478 0.57804 -0.0210623
vt 0.832591 22.7575
vt 8.84586e-16 22.7575
f 33/79/22 35/80/22 36/81/22 34/82/22 

vt 0.973365 16.501
vn 0.981479 -4.70992e-17 0.19157
vt 33.8568 16.501
vt 33.8568 22.7575
vt 0.973365 22.7575
f 35/83/23 30/84/23 32/85/23 36/86/23 

vt 7.13206 33.1037
vn 1.5699e-29 1 -8.80626e-16
vt 5.56099 33.1037
vt -3.5727e-28 0.829224
vt 0.832591 0.829224
f 32/87/24 31/88/24 34/89/24 36/90/24 

vt 31.6041 16.5187
vn 0.987989 -0.00145711 -0.154516
v 0.0152934 0.409126 -1.90127
vt 73.861 16.125
vt 73.9197 22.424
vt 31.6628 22.8177
f 30/91/25 37/92/25 27/93/25 26/94/25 

vt -0.602101 16.8125
vn 0 -0.00942969 -0.999956
v -0.0347066 0.409126 -1.90127
vt 1.3664 16.8125
vt 1.3664 23.1117
vt -0.602101 23.1117
f 37/95/26 38/96/26 28/97/26 27/98/26 

vt -74.0672 16.1241
vn -0.986513 0.00154348 0.163676
vt -31.747 16.5178
vt -31.8056 22.8168
vt -74.1258 22.4231
f 38/99/27 29/100/27 25/101/27 28/102/27 

g Mesh4 Model

v -0.115127 1.43526 -7.49462
vt -294.695 56.5216
v -0.114801 1.25843 -7.48722
vt -294.403 49.5596
v 0.0136529 1.33796 -5.5928
vt -219.649 52.6909
v 0.0134131 1.46785 -5.59824
vt -219.863 57.8045
f 39/103/14 40/104/14 41/105/14 42/106/14 

v -0.0652077 1.43523 -7.4975
vt -14.4362 68.7968
v -0.0648813 1.2584 -7.49009
vt -14.4322 61.8289
vt -12.4636 61.83
vt -12.4676 68.7982
f 43/107/15 44/108/15 40/109/15 39/110/15 

vt 294.384 49.5604
vt 294.675 56.5222
v 0.0632987 1.4678 -5.60162
vt 219.863 57.8045
v 0.0635384 1.33791 -5.59618
vt 219.649 52.6909
f 44/111/12 43/112/12 45/113/12 46/114/12 

vt -5.51343 -219.457
vt -1.47726 -294.171
vt 0.489452 -294.085
vt -3.54779 -219.351
f 45/115/16 43/116/16 39/117/16 42/118/16 

vt 15.4374 66.94
vt 15.4324 61.8219
vt 17.4009 61.82
vt 17.4059 66.9381
f 42/119/17 41/120/17 46/121/17 45/122/17 

vt 10.239 -217.554
vt 8.47292 -292.353
vt 10.4413 -292.379
vt 12.2069 -217.6
f 41/123/13 40/124/13 44/125/13 46/126/13 

g Mesh5 Model

v 0.00612536 0.47606 -5.56097
vt -218.922 18.7425
vn -0.999949 -8.33806e-10 0.010074
v 0.00698206 0.478114 -5.47593
vt -215.574 18.8234
v 0.00686134 0.609789 -5.48792
vt -216.046 24.0074
v 0.00606139 0.605905 -5.56732
vt -219.172 23.8545
f 47/127/28 48/128/28 49/129/28 50/130/28 

g Mesh6 Model

v 0.0137886 1.39093 -3.66619
vt 1.63341 145.64
v 0.0576677 1.4379 -5.56561
vt 3.9259 220.428
v 0.00769264 1.43794 -5.56727
vt 1.95893 220.508
v -0.036198 1.39097 -3.66735
vt -0.334165 145.7
f 51/131/1 52/132/1 53/133/1 54/134/1 

v 0.0136821 1.26093 -3.66619
vt 144.312 49.6407
vn 0.999733 -0.000819659 0.0230749
v 0.0575226 1.26091 -5.56561
vt 219.113 49.6399
vt 219.113 56.6078
vt 144.312 54.7588
f 55/135/29 56/136/29 52/137/29 51/138/29 

v -0.0363046 1.26097 -3.66735
vt 1.47001 144.384
vn -0.000819707 -1 -7.39382e-06
v 0.00754756 1.26095 -5.56727
vt -0.256455 219.184
vt -2.22398 219.119
vt -0.497971 144.339
f 57/139/30 58/140/30 56/141/30 55/142/30 

vt -144.312 54.7588
vn -0.999733 0.000819665 -0.0230749
vt -219.132 56.608
vt -219.132 49.6399
vt -144.312 49.6407
f 54/143/31 53/144/31 58/145/31 57/146/31 

vt 6.96754 49.648
vn 0.0331435 -1.93433e-05 -0.999451
vt 6.96183 56.6162
vt 4.99322 56.6143
vt 4.99893 49.6464
f 58/147/32 53/148/32 52/149/32 56/150/32 

vt -4.75638 54.7644
vn -0.0230749 1.15228e-05 0.999734
vt -4.76057 49.6463
vt -2.79207 49.6447
vt -2.78787 54.7628
f 54/151/33 57/152/33 55/153/33 51/154/33 

g Mesh7 Model

v -0.0589139 0 -5.44136
vt 2.31944 214.227
v -0.0489139 0 -5.65136
vt 1.92574 222.494
v 0.0110861 0 -5.65136
vt -0.436462 222.494
v 0.0110861 0 -5.44136
vt -0.436462 214.227
f 59/155/3 60/156/3 61/157/3 62/158/3 

v -0.0589139 1.52 -5.44136
vt -213.874 59.8425
vn -0.998868 -3.52196e-19 -0.0475651
v -0.0489139 1.52 -5.65136
vt -222.151 59.8425
v -0.0489139 1.46 -5.65136
vt -222.151 57.4803
vt -222.151 4.40475e-18
vt -213.874 4.40475e-18
f 63/159/34 64/160/34 65/161/34 60/162/34 59/163/34 

vt -2.31944 214.227
vn -2.24242e-31 1 -2.57826e-15
v 0.0110861 1.52 -5.44136
vt 0.436462 214.227
v 0.0110861 1.52 -5.65136
vt 0.436462 222.494
vt -1.92574 222.494
f 63/164/35 66/165/35 67/166/35 64/167/35 

vt 0.436462 59.8425
vt -2.31944 59.8425
vt -2.31944 0
vt 0.436462 0
f 66/168/7 63/169/7 59/170/7 62/171/7 

vt 222.494 -3.52641e-11
vn 1 8.07955e-11 2.12586e-09
vt 222.494 59.8425
vt 214.227 59.8425
vt 214.227 -3.52641e-11
f 61/172/36 67/173/36 66/174/36 62/175/36 

vt 1.92574 57.4803
vn -7.49582e-11 8.13969e-13 -1
vt 1.92574 59.8425
vt -0.436462 59.8425
vt -0.436462 -1.81104e-10
vt 1.92574 -1.81104e-10
f 65/176/37 64/177/37 67/178/37 61/179/37 60/180/37 

g Mesh8 Model

v -0.0710521 0.614531 -4.50169
vt 16.7323 -176.23
vn 0.000731686 0.999957 -0.00927131
v -0.0323074 0.614592 -4.49214
vt 15.1821 -175.975
v 0.0605493 0.604609 -5.56144
vt 14.8497 -218.232
v 0.0120034 0.604534 -5.57341
vt 16.7921 -218.552
f 68/181/38 69/182/38 70/183/38 71/184/38 

vt -145.06 101.919
vn -0.00177392 0.999998 0.00128799
v -0.0285821 0.613607 -3.72167
vt -119.227 85.2291
v -0.00743172 0.61364 -3.72283
vt -118.775 85.9298
vt -143.859 102.933
f 68/185/39 72/186/39 73/187/39 69/188/39 

vt -177.122 24.1942
vn -0.998521 -7.28036e-17 0.0543662
v -0.0285821 0.453607 -3.72167
vt -146.367 17.8586
vt -146.367 24.1578
f 68/189/40 74/190/40 72/191/40

vt -146.365 17.8671
vn -0.998506 0.00123705 0.0546206
vt -177.12 24.2027
v -0.0711691 0.454538 -4.50021
vt -177.062 17.9037
f 74/192/41 68/193/41 75/194/41

vt -45.1496 25.7661
vn -0.239414 0.00917685 0.970874
vt -45.1401 19.4669
v -0.0324244 0.454599 -4.49066
vt -43.569 19.4693
vt -43.5785 25.7685
f 68/195/42 75/196/42 76/197/42 69/198/42 

vt -176.428 17.895
vn -0.997011 1.31426e-05 -0.0772659
vt -176.486 24.1939
vt -218.806 23.8003
v 0.0118863 0.444541 -5.57193
vt -218.748 17.5014
f 75/199/43 68/200/43 71/201/43 77/202/43 

vt 50.1085 25.7586
vn 0.239414 -0.00917685 -0.970874
v 0.0604322 0.444616 -5.55996
vt 50.099 19.4594
vt 52.0675 19.4565
vt 52.077 25.7557
f 70/203/44 78/204/44 77/205/44 71/206/44 

vt 176.083 24.1977
vn 0.996251 7.31432e-05 0.0865123
vt 176.024 17.8988
vt 218.281 17.5058
vt 218.34 23.8047
f 69/207/45 76/208/45 78/209/45 70/210/45 

vt 146.501 24.1636
vn 0.999477 -0.00103099 -0.0323193
vt 176.746 17.9021
vt 176.805 24.2011
f 73/211/46 76/212/46 69/213/46

vt 176.745 17.8976
vn 0.999471 -1.90597e-17 -0.0325327
vt 146.5 24.159
v -0.00743172 0.454726 -3.72283
vt 146.5 17.9026
f 76/214/47 73/215/47 79/216/47

vt 6.92463 17.8586
vn 0.0549282 2.85228e-19 0.99849
vt 7.75858 17.9026
vt 7.75858 24.159
vt 6.92463 24.1578
f 74/217/48 79/218/48 73/219/48 72/220/48 

g Mesh9 Model

v 0.0307977 0.434541 -1.90628
vt 75.0343 17.1079
vn 0.999949 -2.04199e-16 -0.010074
v 0.012601 0.510247 -3.71249
vt 146.149 20.0885
v 0.012601 0.685291 -3.71249
vt 146.149 26.98
v 0.0308525 0.564427 -1.90084
vt 74.82 22.2215
f 80/221/49 81/222/49 82/223/49 83/224/49 

vt -1.9685 146.862
vn -0.000421856 -0.999123 -0.0418735
vt -1.9685 75.6849
v -0.0191998 0.434541 -1.90578
vt -1.6076e-12 75.6849
v -0.02 0.43787 -1.9852
vt -1.67843e-12 78.8149
v -0.0373965 0.510247 -3.71198
vt -3.14726e-12 146.862
f 81/225/50 80/226/50 84/227/50 85/228/50 86/229/50 

vt 1.9685 13.9508
vn 0.0100652 -0.0418757 0.999072
vt 1.9685 19.0689
v -0.0191449 0.564427 -1.90033
vt 4.32987e-15 19.0689
vt -7.54952e-15 13.9508
f 80/230/51 83/231/51 87/232/51 84/233/51 

vt 1.9685 76.1332
vn 0.000670564 0.997782 0.0665603
vt 1.9685 147.62
v -0.0373965 0.685291 -3.71198
vt 5.19361e-13 147.62
v -0.02 0.570089 -1.9852
vt 2.81551e-13 79.4823
vt 2.72447e-13 76.1332
f 83/234/52 82/235/52 88/236/52 89/237/52 87/238/52 

vt -1.9685 26.98
vn -0.010074 -9.16955e-18 -0.999949
vt -1.9685 20.0885
vt -2.44249e-15 20.0885
vt 2.88658e-15 26.98
f 82/239/53 81/240/53 86/241/53 88/242/53 

vt -146.149 20.0885
vn -0.999949 -8.44195e-17 0.010074
vt -78.1616 17.239
vt -78.1616 22.4445
vt -146.149 26.98
f 86/243/54 85/244/54 89/245/54 88/246/54 

vt -74.82 22.2215
vn -0.999949 1.69086e-15 0.010074
vt -75.0343 17.1079
f 87/247/55 89/245/55 85/244/55 84/248/55 

g Mesh10 Model

v -0.184841 0.00266302 -7.29712
vt -7.27722 14.6395
vn 0 0.0505929 0.998719
v -0.104841 0.00266302 -7.29712
vt -4.12761 14.6395
v -0.104841 1.50074 -7.37301
vt -4.12761 73.6946
v -0.184841 1.50074 -7.37301
vt -7.27722 73.6946
f 90/249/56 91/250/56 92/251/56 93/252/56 

v -0.184841 -0.0079615 -7.50685
vt -7.27722 -295.183
vn 0 -0.998719 0.0505929
v -0.104841 -0.0079615 -7.50685
vt -4.12761 -295.183
vt -4.12761 -286.915
vt -7.27722 -286.915
f 94/253/57 95/254/57 91/255/57 90/256/57 

vt 7.27722 14.6395
vn 1.57936e-16 -0.0505929 -0.998719
v -0.184841 1.49012 -7.58274
vt 7.27722 73.6946
vt 4.12761 14.6395
f 94/257/58 96/258/58 95/259/58

vt -295.545 -0.313445
vt -287.288 0.104843
vt -290.276 59.0843
vt -298.533 58.666
f 94/260/10 90/261/10 93/262/10 96/263/10 

v -0.104841 1.49012 -7.58274
vt 4.12761 -295.183
vn 0 0.998719 -0.0505929
vt 7.27722 -295.183
vt 7.27722 -286.915
vt 4.12761 -286.915
f 97/264/59 96/265/59 93/266/59 92/267/59 

vt 4.12761 73.8714
vn 5.08771e-17 -0.0511911 -0.998689
v -0.103361 0.556945 -7.53491
vt 4.06935 37.0841
vt 7.27722 73.8714
f 97/268/60 98/269/60 96/270/60

vt 298.534 58.6725
vn 0.999999 0.00158176 -8.01287e-05
vt 290.276 59.0908
vt 296.65 21.9333
f 97/271/61 92/272/61 98/273/61

vt 296.52 21.9107
vn 0.999819 -0.00167917 0.0189281
vt 290.146 59.0681
vt 295.414 -0.329768
f 98/274/62 92/275/62 95/276/62

vt 287.288 0.104843
vt 295.545 -0.313445
vt 290.276 59.0843
f 91/277/11 95/278/11 92/279/11

vt 9.32083 36.6207
vn 0.0176829 -0.0496431 -0.99861
vt 9.35953 14.3528
vt 12.5615 73.4051
f 98/280/63 95/281/63 96/282/63

g Mesh11 Model

v -0.0317116 -0.00571218 -3.69874
vt 145.62 -0.224889
v -0.0317116 0.00408425 -3.90851
vt 153.878 0.160797
v -0.0317116 1.50245 -3.83853
vt 151.123 59.1516
v -0.0317116 1.49265 -3.62876
vt 142.865 58.7659
f 99/283/11 100/284/11 101/285/11 102/286/11 

vt 1.24849 153.718
vn 0 -0.998911 -0.0466497
vt 1.24849 145.451
v -0.0860382 -0.00571218 -3.69874
vt 3.38733 145.451
v -0.0860382 0.00408425 -3.90851
vt 3.38733 153.718
f 100/287/64 99/288/64 103/289/64 104/290/64 

vt -1.24849 -7.01775
vn 0 -0.0466497 0.998911
vt -1.24849 52.0374
v -0.0860382 1.49265 -3.62876
vt -3.38733 52.0374
vt -3.38733 -7.01775
f 99/291/65 102/292/65 105/293/65 103/294/65 

vt -1.24849 145.451
vn 0 0.998911 0.0466497
vt -1.24849 153.718
v -0.0860382 1.50245 -3.83853
vt -3.38733 153.718
vt -3.38733 145.451
f 102/295/66 101/296/66 106/297/66 105/298/66 

vt 1.24849 52.0374
vn 0 0.0466497 -0.998911
vt 1.24849 -7.01775
vt 3.38733 -7.01775
vt 3.38733 52.0374
f 101/299/67 100/300/67 104/301/67 106/302/67 

vt -153.878 0.160797
vt -145.62 -0.224889
vt -142.865 58.7659
vt -151.123 59.1516
f 104/303/10 103/304/10 105/305/10 106/306/10 

g Mesh12 Model

v -0.088978 -0.00335318 -1.77209
vt -3.50307 2.05949
vn 0 0.0314108 0.999507
v -0.00897802 -0.00335318 -1.77209
vt -0.353465 2.05949
v -0.00897802 1.49591 -1.81921
vt -0.353465 61.1146
v -0.088978 1.49591 -1.81921
vt -3.50307 61.1146
f 107/307/68 108/308/68 109/309/68 110/310/68 

v -0.088978 -0.00994944 -1.98199
vt -3.50307 -78.0047
vn 0 -0.999507 0.0314108
v -0.00897802 -0.00994944 -1.98199
vt -0.353465 -78.0047
vt -0.353465 -69.737
vt -3.50307 -69.737
f 111/311/69 112/312/69 108/313/69 107/314/69 

vt 0.353465 2.05949
vn 0 -0.0314108 -0.999507
vt 3.50307 2.05949
v -0.088978 1.48931 -2.0291
vt 3.50307 61.1146
v -0.00897802 1.48931 -2.0291
vt 0.353465 61.1146
f 112/315/70 111/316/70 113/317/70 114/318/70 

vt -78.0309 -0.39171
vt -69.7673 -0.132015
vt -71.6223 58.894
vt -79.8859 58.6343
f 111/319/10 107/320/10 110/321/10 113/322/10 

vt 0.353465 -78.0047
vn 0 0.999507 -0.0314108
vt 3.50307 -78.0047
vt 3.50307 -69.737
vt 0.353465 -69.737
f 114/323/71 113/324/71 110/325/71 109/326/71 

vt 69.7673 -0.132015
vt 78.0309 -0.39171
vt 79.8859 58.6343
vt 71.6223 58.894
f 108/327/11 112/328/11 114/329/11 109/330/11 

g Mesh13 Model

v 0.0616566 0.607585 -5.63722
vt 4.45555 223.006
vn 0.000608292 0.997782 0.0665593
v -0.0535695 0.733922 -7.53002
vt 0.600291 297.73
v -0.103508 0.733781 -7.52749
vt -1.36662 297.648
v 0.0117486 0.607417 -5.63419
vt 2.48966 222.905
f 115/331/72 116/332/72 117/333/72 118/334/72 

v 0.0617643 0.477699 -5.64267
vt 221.598 18.7535
vn 0.99816 0.00336749 -0.0605393
v -0.0534229 0.557092 -7.53743
vt 296.332 21.8792
vt 296.041 28.841
vt 221.384 23.8671
f 119/335/73 120/336/73 116/337/73 115/338/73 

v 0.0118856 0.477531 -5.64015
vt 5.51633 222.578
vn 0.00113062 -0.99912 -0.0419387
vt 12.0623 297.092
vt 10.0996 297.244
vt 3.55599 222.731
v 0.0656694 0.47447 -5.56562
vt 3.32056 219.7
v 0.0166816 0.474305 -5.56315
vt 5.24589 219.55
v 0.0165668 0.474305 -5.56314
vt 5.25039 219.55
v 0.0157907 0.474302 -5.5631
vt 5.2809 219.548
f 121/339/74 98/340/74 120/341/74 119/342/74 122/343/74 123/344/74 124/345/74 125/346/74 

vt -221.384 23.8607
vn -0.998158 -0.00382427 0.0605506
vt -296.352 21.8736
vt -221.617 18.7471
v 0.0165672 0.474006 -5.56315
vt -218.58 18.6083
vt -218.58 18.6201
v 0.0165644 0.476323 -5.56305
vt -218.576 18.6995
v 0.0164301 0.603892 -5.5572
vt -218.347 23.722
f 118/347/75 98/348/75 121/349/75 126/350/75 124/351/75 127/352/75 128/353/75 

vt -296.352 21.88
vn -0.99816 -0.00336748 0.0605393
vt -221.384 23.8671
vt -296.061 28.8421
f 98/354/76 118/355/76 117/356/76

vt -10.9507 9.5093
vn -0.0505702 0.0418195 -0.997845
vt -10.9301 16.4774
vt -12.8987 16.483
vt -12.9192 9.51511
f 98/357/77 117/358/77 116/359/77 120/360/77 

vt 221.34 23.891
vn 0.932006 -0.355032 -0.0729249
vt 221.072 29.3681
v 0.0663381 0.60406 -5.56023
vt 218.036 29.2196
v 0.0655636 0.602036 -5.56027
vt 218.04 29.1344
vt 218.303 23.7552
vt 218.304 23.7426
f 121/361/78 115/362/78 129/363/78 130/364/78 123/365/78 126/366/78 

vt -221.285 28.4671
vn -0.932605 0.355503 0.06217
vt -221.53 22.989
vt -218.493 22.853
vt -218.489 22.9381
v 0.0654477 0.604057 -5.56018
vt -218.248 28.3185
v 0.0655617 0.604356 -5.56017
vt -218.248 28.3311
f 115/367/79 121/368/79 125/369/79 127/370/79 131/371/79 132/372/79 

vt 12.3161 9.29137
vn 0.0532097 -0.0428256 0.997665
vt 12.3206 9.29139
vt 14.2363 14.3248
v 0.0655622 0.604058 -5.56018
vt 14.2361 14.4045
vt 14.236 14.4162
vt 14.2316 14.4044
vt 12.3158 9.37091
vt 12.2855 9.29127
f 124/373/80 123/374/80 130/375/80 133/376/80 132/377/80 131/378/80 127/379/80 125/380/80 

vt 12.846 9.09312
vn 0.0556044 -0.043735 0.997495
vt 14.7612 14.1267
vt 14.7609 14.2064
vt 14.7564 14.2064
vt 12.8411 9.17263
vt 12.8414 9.0931
f 123/381/81 130/382/81 133/383/81 131/384/81 127/385/81 124/386/81 

vt 13.6743 9.51747
vn 0.0505775 -0.0418191 0.997844
vt 13.6595 14.5441
vt 11.7432 9.51096
f 122/387/82 130/388/82 123/389/82

vt 221.746 18.7668
vn 0.99872 0.00294666 -0.0504985
vt 221.532 23.8804
vt 218.495 23.7533
vt 218.495 23.7415
vt 218.499 23.6619
vt 218.709 18.6396
f 119/390/83 115/391/83 132/392/83 133/393/83 130/394/83 122/395/83 

vt 14.7915 14.2065
f 129/396/81 133/383/81 130/382/81

vt -0.45339 222.813
vn -0.000594114 0.998952 0.0457699
vt -2.41656 222.668
vt -2.19292 219.636
vt -0.264777 219.779
vt -0.260274 219.779
vt -0.22975 219.781
f 115/397/84 118/398/84 128/399/84 131/400/84 133/401/84 129/402/84 

vt 13.9446 13.7755
vn 0.0607212 -0.0456845 0.997109
vt 13.9639 8.7479
vt 15.878 13.7821
f 128/403/85 127/404/85 131/405/85

