# Alias OBJ Model File
# Exported from SketchUp, (c) 2000-2012 Trimble Navigation Limited
# File units = meters

mtllib shield.mtl

g Mesh1 Model

usemtl M_0130_Gainsboro
v 0.0950249 -0.38147 0.0766051
vt -1.94763 -15.0185
vn -0.457343 9.40348e-19 -0.88929
v 0.0950249 0.400593 0.0766051
vt -1.94763 15.7714
v 0.137991 0.384218 0.0545084
vt -3.84981 15.1267
v 0.137991 -0.356271 0.0545084
vt -3.84981 -14.0264
f 1/1/1 2/2/1 3/3/1 4/4/1 

v 0.0467139 -0.397278 0.0902051
vt -0.807984 -15.6409
vn -0.270976 -1.54001e-16 -0.962586
v 0.0467139 0.362593 0.0902051
vt -0.807984 14.2753
v 0.0467093 0.42116 0.0902064
vt -0.807795 16.5811
vt -2.78392 15.7714
vt -2.78392 -15.0185
f 5/5/2 6/6/2 7/7/2 2/8/2 1/9/2 

vt -3.55138 -15.6409
vn 1 3.24574e-06 6.12905e-09
v 0.0467139 -0.397278 0.0655933
vt -2.58241 -15.6409
v 0.0467139 0.362593 0.0655933
vt -2.58241 14.2753
v 0.0467093 0.42116 0.0655946
vt -2.58247 16.5811
vt -3.55143 16.5811
vt -3.55138 14.2753
f 5/10/3 8/11/3 9/12/3 10/13/3 7/14/3 6/15/3 

vt -2.58241 0.132203
vn 0.108439 -0.994103 2.80509e-14
vt -3.55138 0.132203
v -0.00238397 -0.402633 0.0944124
vt -3.71702 -1.81225
v -0.00286792 -0.402686 0.0944539
vt -3.71866 -1.83142
v -0.00436159 -0.402849 0.0945819
vt -3.7237 -1.89057
v -0.00436159 -0.402849 0.0699819
vt -2.75519 -1.89057
v -0.00286792 -0.402686 0.0698422
vt -2.74969 -1.83142
v -0.00238397 -0.402633 0.0698007
vt -2.74806 -1.81225
f 8/16/4 5/17/4 11/18/4 12/19/4 13/20/4 14/21/4 15/22/4 16/23/4 

v 0.0950249 -0.38147 0.0519934
vt -2.04698 -1.11481
vn 0.31098 -0.950417 3.36754e-14
vt -3.01595 -1.11481
vt -3.55138 -3.11605
vt -2.58241 -3.11605
f 17/24/5 1/25/5 5/26/5 8/27/5 

vt -3.01595 -15.0185
vn 1 1.72939e-32 1.83325e-14
vt -2.04698 -15.0185
v 0.0950249 0.400593 0.0519934
vt -2.04698 15.7714
vt -3.01595 15.7714
f 1/28/6 17/29/6 18/30/6 2/31/6 

v 0.137991 -0.356271 0.0298967
vt -1.17703 -2.40976
vn 0.505902 -0.862591 3.23663e-14
vt -2.146 -2.40976
vt -3.01595 -4.37082
vt -2.04698 -4.37082
f 19/32/7 4/33/7 1/34/7 17/35/7 

vt -2.146 -14.0264
vn 1 3.01255e-33 2.1999e-14
vt -1.17703 -14.0264
v 0.137991 0.384218 0.0298967
vt -1.17703 15.1267
vt -2.146 15.1267
f 4/36/8 19/37/8 20/38/8 3/39/8 

v 0.173319 -0.323025 0.000483181
vt -0.0190229 -3.74645
vn 0.685324 -0.728238 3.91737e-14
v 0.173319 -0.323025 0.0250949
vt -0.987989 -3.74645
vt -2.146 -5.65632
vt -1.17703 -5.65632
f 21/40/9 22/41/9 4/42/9 19/43/9 

vt -0.987989 -12.7175
vn 1 -2.92048e-32 2.1999e-14
vt -0.0190229 -12.7175
v 0.173319 0.371408 0.000483181
vt -0.0190229 14.6224
v 0.173319 0.371408 0.0250949
vt -0.987989 14.6224
f 22/44/10 21/45/10 23/46/10 24/47/10 

v 0.19912 -0.283509 -0.0346763
vt 1.36521 -5.06003
vn 0.837318 -0.546716 4.04162e-14
v 0.19912 -0.283509 -0.0100646
vt 0.396244 -5.06003
vt -0.987989 -6.91806
vt -0.0190229 -6.91806
f 25/48/11 26/49/11 22/50/11 21/51/11 

vt 1.36521 -8.03328
vn 0.946455 -0.322835 3.2702e-14
v 0.214018 -0.239832 -0.0737042
vt 2.90174 -6.21645
vt 0.396244 -8.03328
f 25/52/12 27/53/12 26/54/12

v 0.19912 0.362593 -0.0346763
vt -4.0712 14.2753
vn -0.934246 5.80769e-16 -0.35663
v 0.214018 0.362593 -0.0737042
vt -5.71587 14.2753
v 0.214018 0.0343535 -0.0737042
vt -5.71587 1.3525
v 0.214018 -0.0121522 -0.0737042
vt -5.71587 -0.478433
vt -5.71587 -9.44221
vt -4.0712 -11.1618
f 28/55/13 29/56/13 30/57/13 31/58/13 27/59/13 25/60/13 

v 0.200204 0.366151 -0.0361535
vt -4.14075 15.2106
vn -0.92565 0.135336 -0.353349
vt -5.71587 15.0693
vt -4.0712 15.0693
f 32/61/14 29/62/14 28/63/14

v 0.214018 0.362593 -0.0490925
vt 1.93277 -4.59948
vn 0.249396 0.968402 -1.70827e-14
vt 2.90174 -4.59948
vt 1.42337 -4.03787
v 0.200204 0.366151 -0.0115418
vt 0.454401 -4.03787
f 33/64/15 29/65/15 32/66/15 34/67/15 

vt -2.90174 -9.44221
vn -1 2.16917e-15 -3.42976e-14
v 0.214018 -0.239832 -0.0490925
vt -1.93277 -9.44221
vt -1.93277 14.2753
vt -2.90174 14.2753
vt -2.90174 1.3525
vt -2.90174 -0.478433
f 27/68/16 35/69/16 33/70/16 29/71/16 30/72/16 31/73/16 

vt 1.93277 -6.21645
vn 0.946455 -0.322835 5.24594e-14
f 35/74/17 26/54/17 27/53/17

v 0.19912 0.362593 -0.0100646
vt -3.16595 14.2753
vn -0.934246 8.97858e-16 -0.35663
vt -4.81062 14.2753
vt -4.81062 -9.44221
vt -3.16595 -11.1618
f 36/75/18 33/76/18 35/77/18 26/78/18 

vt -3.2355 15.2574
vt -4.81062 15.116
vt -3.16595 15.116
f 34/79/14 33/80/14 36/81/14

vt -3.24052 -12.7175
vn -0.806208 4.06495e-17 -0.591633
vt -3.24052 14.6224
vt -5.02963 14.4154
vt -4.95749 14.2753
vt -4.95749 -11.1618
f 22/82/19 24/83/19 34/84/19 36/85/19 26/86/19 

vt -2.80192 -14.0264
vn -0.639851 -1.43581e-18 -0.768499
vt -2.80192 15.1267
vt -4.61174 14.6224
vt -4.61174 -12.7175
f 4/87/20 3/88/20 24/89/20 22/90/20 

vt -0.987989 -1.43054
vn 0.340873 0.94011 -1.67803e-14
vt -0.0190229 -1.43054
vt -1.17703 0.0489093
vt -2.146 0.0489093
f 24/91/21 23/92/21 20/93/21 3/94/21 

vt 0.454401 -4.96893
vn 0.19192 0.981411 -1.64172e-14
vt 1.42337 -4.96893
vt -0.0190229 -3.89039
vt -0.987989 -3.89039
f 34/95/22 32/96/22 23/97/22 24/98/22 

vt -4.02171 -12.7175
vn -0.806208 6.1727e-17 -0.591633
vt -4.02171 14.6224
vt -5.81081 14.4154
vt -5.73868 14.2753
vt -5.73868 -11.1618
f 21/99/23 23/100/23 32/101/23 28/102/23 25/103/23 

vt -3.42192 -14.0264
vn -0.639851 -1.54625e-18 -0.768499
vt -3.42192 15.1267
vt -5.23173 14.6224
vt -5.23173 -12.7175
f 19/104/24 20/105/24 23/106/24 21/107/24 

vt -2.39078 -15.0185
vn -0.457343 5.75723e-20 -0.88929
vt -2.39078 15.7714
vt -4.29296 15.1267
vt -4.29296 -14.0264
f 17/108/25 18/109/25 20/110/25 19/111/25 

vt -1.07055 -15.6409
vn -0.270976 3.67422e-16 -0.962586
vt -1.07055 14.2753
vt -1.07036 16.5811
vt -3.04648 15.7714
vt -3.04648 -15.0185
f 8/112/26 9/113/26 10/114/26 18/115/26 17/116/26 

vt 0.40656 -15.8602
vn -0.0854649 3.51682e-07 -0.996341
vt -1.6117 14.2753
vt -1.6117 -15.6409
vt 0.328376 -15.8517
vt 0.347499 -15.8538
f 14/117/27 9/118/27 8/119/27 16/120/27 15/121/27 

vt 0.414593 -15.8597
vn -0.0883965 0.000180385 -0.996085
v -0.00266919 0.362593 0.0699739
vt 0.348196 14.2758
v -0.00265721 0.442068 0.0699819
vt 0.347754 17.4047
vt -1.60347 16.5816
vt -1.60366 14.2758
f 14/122/28 37/123/28 38/124/28 10/125/28 9/126/28 

vt -0.0934611 -15.8608
vn 0.0959588 -0.000204558 -0.995385
v -0.0554741 0.362593 0.0648902
vt 1.92879 14.2748
v -0.0554741 0.415793 0.0648902
vt 1.92879 16.3692
vt -0.160253 17.4037
vt -0.159754 14.2748
f 14/127/29 39/128/29 40/129/29 38/130/29 37/131/29 

vt 1.92002 14.2753
vn 0.0991274 0 -0.995075
vt -0.102245 -15.8602
v -0.0554741 -0.397887 0.0648902
vt 1.92002 -15.6648
f 39/132/30 14/133/30 41/134/30

v -0.0554741 -0.397887 0.0895019
vt 3.5237 0.660126
vn -0.0966286 -0.995321 1.46993e-14
vt 2.55473 0.660126
vt 2.75519 -1.36164
vt 3.7237 -1.36164
f 42/135/31 41/136/31 14/137/31 13/138/31 

vt 2.55473 -2.61703
vn -0.300061 -0.95392 3.04195e-14
vt 3.5237 -2.61703
v -0.103894 -0.382656 0.0752363
vt 2.96206 -0.618649
v -0.103894 -0.382656 0.0506246
vt 1.9931 -0.618649
f 41/139/32 42/140/32 43/141/32 44/142/32 

vt 2.55473 -15.6648
vn -1 6.46841e-34 1.83325e-15
vt 3.5237 -15.6648
v -0.0554741 0.362593 0.0895019
vt 3.5237 14.2753
v -0.0554741 0.415793 0.0895019
vt 3.5237 16.3698
vt 2.55473 16.3698
vt 2.55473 14.2753
f 41/143/33 42/144/33 45/145/33 46/146/33 40/147/33 39/148/33 

vt 1.82481 14.2753
vn 0.0989013 -7.30453e-19 -0.995097
vt -0.197404 -15.8602
vt 1.82481 -15.6648
f 45/149/34 13/150/34 42/151/34

vt -0.186382 -15.8609
vn 0.0959545 -0.000190201 -0.995386
vt 1.83583 14.2746
vt 1.83583 16.3691
v -0.00265721 0.442068 0.0945936
vt -0.253218 17.4035
v -0.00266919 0.362593 0.0945857
vt -0.252719 14.2746
f 13/152/35 45/153/35 46/154/35 47/155/35 48/156/35 

vt 1.09915 14.2753
vn 0.282611 7.04931e-19 -0.959235
vt 1.09915 -15.6648
vt 3.08646 -15.0652
v -0.103894 0.392993 0.0752363
vt 3.08646 15.4722
vt 1.09915 16.3698
f 45/157/36 42/158/36 43/159/36 49/160/36 46/161/36 

vt -2.96206 -15.0652
vn 1 -1.43538e-32 9.16625e-15
vt -1.9931 -15.0652
v -0.103894 0.392993 0.0506246
vt -1.9931 15.4722
vt -2.96206 15.4722
f 43/162/37 44/163/37 50/164/37 49/165/37 

vt 1.9931 -3.93194
vn -0.49665 -0.867951 2.60421e-14
vt 2.96206 -3.93194
v -0.147035 -0.35797 0.0525471
vt 2.06878 -1.97505
v -0.147035 -0.35797 0.0279354
vt 1.09982 -1.97505
f 44/166/38 43/167/38 51/168/38 52/169/38 

vt 2.2414 -15.0652
vn 0.465476 1.9226e-20 -0.88506
vt 4.16047 -14.0933
v -0.147035 0.377793 0.0525471
vt 4.16047 14.8737
vt 2.2414 15.4722
f 43/170/39 51/171/39 53/172/39 49/173/39 

vt -2.06878 -14.0933
vn 1 1.07139e-34 1.4666e-14
vt -1.09982 -14.0933
v -0.147035 0.377793 0.0279354
vt -1.09982 14.8737
vt -2.06878 14.8737
f 51/174/40 52/175/40 54/176/40 53/177/40 

vt 1.09982 -5.30537
vn -0.678269 -0.734814 1.43641e-14
vt 2.06878 -5.30537
v -0.182595 -0.325147 0.0226458
vt 0.891568 -3.40017
v -0.182595 -0.325147 -0.00196591
vt -0.0773981 -3.40017
f 52/178/41 51/179/41 55/180/41 56/181/41 

vt 3.09913 -14.0933
vn 0.64359 1.31007e-18 -0.765371
vt 4.92827 -12.8011
v -0.182595 0.370193 0.0226458
vt 4.92827 14.5745
vt 3.09913 14.8737
f 51/182/42 55/183/42 57/184/42 53/185/42 

vt -0.891568 -12.8011
vn 1 -2.03772e-33 1.4666e-14
vt 0.0773981 -12.8011
v -0.182595 0.370193 -0.00196591
vt 0.0773981 14.5745
vt -0.891568 14.5745
f 55/186/43 56/187/43 58/188/43 57/189/43 

vt -0.0773981 -6.6774
vn -0.832638 -0.553818 7.60341e-15
vt 0.891568 -6.6774
v -0.208673 -0.28594 -0.0128707
vt -0.506719 -4.82355
v -0.208673 -0.28594 -0.0374824
vt -1.47569 -4.82355
f 56/190/44 55/191/44 59/192/44 60/193/44 

vt 5.27071 -11.2575
vn 0.806053 -1.50546e-18 -0.591844
v -0.208673 0.362593 -0.0128707
vt 5.27071 14.2753
v -0.208673 0.364688 -0.0128707
vt 5.27071 14.3578
vt 3.53598 14.5745
vt 3.53598 -12.8011
f 59/194/45 61/195/45 62/196/45 57/197/45 55/198/45 

v -0.223877 -0.242443 -0.0521057
vt 5.0976 -9.54501
vn 0.932437 3.24648e-16 -0.361332
v -0.223877 0.362593 -0.0521057
vt 5.0976 14.2753
vt 3.44099 14.2753
vt 3.44099 -11.2575
f 63/199/46 64/200/46 61/201/46 59/202/46 

v -0.223877 -0.242443 -0.0767174
vt -3.02037 -9.54501
vn -1 -7.45732e-16 -1.09995e-14
vt -2.0514 -9.54501
vt -2.0514 14.2753
v -0.223877 0.362593 -0.0767174
vt -3.02037 14.2753
f 65/203/47 63/204/47 64/205/47 66/206/47 

vt -1.47569 -7.91619
vn -0.943993 -0.329964 2.2838e-15
vt -0.506719 -7.91619
vt -2.0514 -6.1021
vt -3.02037 -6.1021
f 60/207/48 59/208/48 63/209/48 65/210/48 

vt 0.506719 -11.2575
vn 1 -1.34177e-32 1.09995e-14
vt 1.47569 -11.2575
v -0.208673 0.362593 -0.0374824
vt 1.47569 14.2753
v -0.208673 0.364688 -0.0374824
vt 1.47569 14.3578
vt 0.506719 14.3578
vt 0.506719 14.2753
f 59/211/49 60/212/49 67/213/49 68/214/49 62/215/49 61/216/49 

v -0.231377 -0.239832 -0.0767174
vt -3.02037 -4.44683
vn -0.897135 -0.441757 6.56738e-15
vt -1.47569 -6.47026
vt -0.506719 -6.47026
f 69/217/50 60/218/50 59/219/50

vt 7.23914 -5.20395
vn -0.242002 -0.695158 -0.676897
vt 7.56081 -2.67872
vt 7.28277 -2.82171
f 60/220/51 69/221/51 65/222/51

vt 8.81404 -9.54501
vn 0 0 -1
vt 9.10932 -9.44221
v -0.231377 -0.0121522 -0.0767174
vt 9.10932 -0.478433
v -0.231377 0.0343535 -0.0767174
vt 9.10932 1.3525
v -0.231377 0.362593 -0.0767174
vt 9.10932 14.2753
vt 8.81404 14.2753
f 65/223/52 69/224/52 70/225/52 71/226/52 72/227/52 66/228/52 

vt -2.0514 5.18592
vn -0.328773 -0.944409 3.44629e-14
vt -3.02037 5.49858
vt -3.02037 5.18592
f 63/229/53 69/230/53 65/231/53

vt -5.54455 -9.44221
vn -0.956571 -3.54617e-16 0.291499
vt -4.5316 -9.54501
vt -4.5316 14.2753
vt -5.54455 14.2753
vt -5.54455 1.3525
vt -5.54455 -0.478433
f 69/232/54 63/233/54 64/234/54 72/235/54 71/236/54 70/237/54 

vt -5.48144 -8.791
vn -0.955891 -0.0789277 0.282918
vt -2.81746 -10.612
vt -4.46851 -8.89411
f 69/238/55 59/239/55 63/240/55

vt -9.10932 3.02037
vn -7.22753e-30 1 -2.9332e-14
vt -8.81404 2.0514
vt -8.81404 3.02037
f 72/241/56 64/242/56 66/243/56

vt -0.506719 -6.17911
vn -0.136475 0.990644 -2.69311e-14
vt -1.47569 -6.17911
vt -3.02037 -6.78335
vt -2.0514 -6.78335
f 62/244/57 68/245/57 66/246/57 64/247/57 

vt -1.47569 -5.07252
vn -0.206561 0.978434 -3.13914e-14
vt -0.506719 -5.07252
vt 0.891568 -4.0232
vt -0.0773981 -4.0232
f 68/248/58 62/249/58 57/250/58 58/251/58 

vt 1.09982 -2.55222
vn -0.209008 0.977914 -3.18604e-14
vt -0.0773981 -3.98381
vt 0.891568 -3.98381
vt 2.06878 -2.55222
f 54/252/59 58/253/59 57/254/59 53/255/59 

vt 5.55188 -12.8011
vn 0.64359 -2.18345e-19 -0.765371
vt 5.55188 14.5745
vt 3.72274 14.8737
vt 3.72274 -14.0933
f 56/256/60 58/257/60 54/258/60 52/259/60 

vt 6.05175 -11.2575
vn 0.806053 1.50546e-18 -0.591844
vt 6.05175 14.2753
vt 6.05175 14.3578
vt 4.31702 14.5745
vt 4.31702 -12.8011
f 60/260/61 67/261/61 68/262/61 58/263/61 56/264/61 

vt 6.0011 -9.54501
vn 0.932437 3.23937e-16 -0.361332
vt 6.0011 14.2753
vt 4.34449 14.2753
vt 4.34449 -11.2575
f 65/265/62 66/266/62 67/267/62 60/268/62 

vn 0.932437 0 -0.361332
vt 4.34449 14.3578
f 66/266/63 68/269/63 67/267/63

vt 4.6115 -14.0933
vn 0.465476 0 -0.88506
vt 4.6115 14.8737
vt 2.69244 15.4722
vt 2.69244 -15.0652
f 52/270/64 54/271/64 50/272/64 44/273/64 

vt 1.9931 1.28364
vn -0.332307 0.943171 -2.1031e-14
vt 1.09982 -0.517186
vt 2.06878 -0.517186
vt 2.96206 1.28364
f 50/274/65 54/275/65 53/276/65 49/277/65 

vt 3.5237 4.99784
vn -0.426014 0.904717 -2.14317e-14
vt 2.55473 4.99784
vt 1.9931 2.89078
vt 2.96206 2.89078
f 46/278/66 40/279/66 50/280/66 49/281/66 

vt 2.55473 5.33567
vn -0.445399 0.895332 -1.11652e-14
vt 3.5237 5.33567
vt 3.72416 7.65816
vt 2.75519 7.65816
f 40/282/67 46/283/67 47/284/67 38/285/67 

vt -3.55143 4.77296
vn 0.38998 0.920823 -3.5455e-15
vt -2.58247 4.77296
vt -2.75519 6.88364
vt -3.72416 6.88364
f 7/286/68 10/287/68 38/288/68 47/289/68 

vt -3.01595 2.73505
vn 0.391676 0.920103 -1.20879e-14
vt -2.04698 2.73505
vt -2.58247 4.80241
vt -3.55143 4.80241
f 2/290/69 18/291/69 10/292/69 7/293/69 

vt -2.146 0.310599
vn 0.356134 0.934435 -2.03113e-14
vt -1.17703 0.310599
vt -2.04698 2.12088
vt -3.01595 2.12088
f 3/294/70 20/295/70 18/296/70 2/297/70 

vt 0.500191 -15.8595
vn -0.0883925 0.000194722 -0.996086
vt 0.433835 14.276
vt 0.433393 17.405
vt -1.51783 16.5818
vt -1.51802 14.276
f 13/298/71 48/299/71 47/300/71 7/301/71 6/302/71 

vt 0.48902 -15.8602
vn -0.0853804 -6.81899e-18 -0.996348
vt -1.5292 14.2753
vt -1.5292 -15.6409
vt 0.410875 -15.8517
vt 0.429998 -15.8538
f 13/303/72 6/304/72 5/305/72 11/306/72 12/307/72 

vt 3.3603 -15.0652
vn 0.282611 1.0574e-18 -0.959235
vt 3.3603 15.4722
vt 1.37299 16.3698
vt 1.37299 14.2753
vt 1.37299 -15.6648
f 44/308/73 50/309/73 40/310/73 39/311/73 41/312/73 

vn 0.932437 -5.98133e-16 -0.361332
vt 3.44099 14.3578
f 64/200/74 62/313/74 61/201/74

v -0.231377 0.0343535 -0.0737042
vn -1 0 -0
vt -3.02037 1.3525
vt -3.02037 -0.478433
v -0.231377 -0.0121522 -0.0737042
f 73/72/75 71/314/75 70/315/75 74/73/75 

usemtl M_0043_SaddleBrown
vt -9.10932 2.90174
vn 2.78629e-18 1 -1.13477e-15
vt 8.42592 2.90174
v 0.221518 0.0343535 -0.0737042
vt 8.7212 2.90174
v 0.221518 0.0343535 -0.0860042
vt 8.7212 3.38599
v -0.231377 0.0343535 -0.0860042
vt -9.10932 3.38599
f 73/316/76 30/317/76 75/318/76 76/319/76 77/320/76 71/241/76 

vt -9.10932 1.3525
vn 0 0 1
vt -9.10932 -0.478433
vt 8.42592 -0.478433
vt 8.42592 1.3525
f 73/321/77 74/322/77 31/323/77 30/324/77 

vt -8.42592 2.90174
vn -4.00454e-17 -1 2.77896e-15
vt 9.10932 2.90174
vt 9.10932 3.02037
v -0.231377 -0.0121522 -0.0860042
vt 9.10932 3.38599
v 0.221518 -0.0121522 -0.0860042
vt -8.7212 3.38599
v 0.221518 -0.0121522 -0.0737042
vt -8.7212 2.90174
f 31/325/78 74/326/78 70/327/78 78/328/78 79/329/78 80/330/78 

vt -3.38599 -0.478433
vt -3.38599 1.3525
f 78/331/75 70/315/75 71/314/75 77/332/75 

vn 1.11487e-32 -6.5488e-15 -1
vt -8.7212 1.3525
vt -8.7212 -0.478433
f 78/225/79 77/226/79 76/333/79 79/334/79 

vt 2.90174 1.3525
vn 1 -1.94038e-15 -1.19047e-31
vt 2.90174 -0.478433
vt 3.38599 -0.478433
vt 3.38599 1.3525
f 75/335/80 80/336/80 79/337/80 76/338/80 

usemtl M_0130_Gainsboro
vt 4.30498 -9.44221
vn 0.956571 -9.80689e-16 0.291499
v 0.221518 -0.239832 -0.0737042
vt 5.31794 -9.44221
vt 5.31794 -0.478433
vt 5.31794 1.3525
v 0.221518 0.358431 -0.0737042
vt 5.31794 14.1115
vt 4.30498 14.2753
f 35/339/81 81/340/81 80/341/81 75/342/81 82/343/81 33/344/81 

vn 2.89101e-29 -1 4.3998e-14
vt -8.42592 1.93277
f 81/330/82 35/345/82 27/325/82

vt 2.6642 -10.6528
vn 0.954506 -0.065672 0.290869
vt 5.31794 -8.92951
vt 4.30498 -8.92951
f 26/346/83 81/347/83 35/348/83

vt -7.83938 -5.98935
vn -4.01392e-15 -0.824498 -0.565865
vt -8.42592 -2.95054
vt -8.7212 -2.95054
f 26/349/84 27/350/84 81/351/84

vt -8.42592 -9.44221
vn -2.13896e-30 -9.4131e-16 -1
vt -8.42592 -0.478433
vt -8.7212 -9.44221
f 27/352/85 31/353/85 80/334/85 81/354/85 

vt -8.42592 1.3525
f 31/353/52 30/355/52 75/333/52 80/334/52 

vt -8.7212 14.1115
vn 6.36911e-14 -8.22069e-16 -1
vt -8.42592 14.2753
f 82/356/86 75/333/86 30/355/86 29/357/86 

vt 1.93277 -0.440658
vn 0.485232 0.874385 -1.13817e-14
vt 2.90174 -0.778353
vt 2.90174 -0.440658
f 33/358/87 82/359/87 29/360/87

